<?xml version="1.0" encoding="utf-8"?>
<!-- Generator: Adobe Illustrator 25.1.0, SVG Export Plug-In . SVG Version: 6.00 Build 0)  -->
<svg version="1.1" id="レイヤー_1" xmlns="http://www.w3.org/2000/svg" xmlns:xlink="http://www.w3.org/1999/xlink" x="0px"
	 y="0px" viewBox="0 0 512 512" style="enable-background:new 0 0 512 512;" xml:space="preserve">
<style type="text/css">
	.st0{fill:#433221;}
</style>
<g>
	<path class="st0" d="M215.1,84.76L215.1,84.76c-12.51-2.59-26.35-3.04-40.75-0.85c-14.4,2.19-27.69,6.76-39.25,13.01v0
		c-1.19,0.77-2.73,0.35-3.43-0.95c-0.7-1.3-0.3-2.97,0.89-3.74c0.09-0.05,0.17-0.1,0.26-0.14c12.51-7.07,26.25-11.95,40.89-14.17
		c14.59-2.22,28.88-1.61,42.45,1.47c0.13,0.02,0.27,0.05,0.4,0.09c1.34,0.43,2.1,1.97,1.7,3.43
		C217.85,84.36,216.44,85.19,215.1,84.76L215.1,84.76z M135.1,96.92L135.1,96.92L135.1,96.92z M167.09,16.17
		c-0.61,1.59-1.6,3.67-3.08,5.7c-2.66,3.63-1.08,7.29,0.41,8.24c1.17,0.77,1.66,1.25,1.76,2.17c-0.68-0.33-1.47-0.45-2.24-0.33
		c-2.5,0.38-4.25,3.01-3.95,5.87c0.31,2.87,2.56,4.93,5.06,4.55c0.7-0.11,1.35-0.4,1.91-0.84c-0.27,5.43-1.62,16.85-8.51,17.94
		c-6.49,1.07-11.87-3.31-14.41-5.84c1.13-1.16,1.76-2.87,1.56-4.69c-0.31-2.87-2.56-4.89-5.06-4.51c-2.47,0.38-4.22,3-3.91,5.87
		c0.29,2.75,2.33,4.73,4.65,4.57c0.92,4.78,1.72,13.52-3.66,16.1c-5.87,2.78-11.71-3.69-14.08-6.8c1.87-0.91,3.05-3.14,2.79-5.54
		c-0.31-2.91-2.56-4.92-5.06-4.54c-1.6,0.24-2.92,1.47-3.53,3.05l-0.45-0.4c-7.25-6.96-13.79-2.55-13.79-2.55s7.89,2.78,18.22,19.55
		c3.65,5.9,6.68,11.07,9.02,15.24c12.99-7.41,27.31-12.57,42.54-14.89c15.23-2.31,30.18-1.59,44.32,1.69
		c1.39-4.74,3.23-10.65,5.52-17.45c6.46-19.32,13.51-24.37,13.51-24.37s-7.26-2.32-12.81,6.59l-0.35,0.53
		c-0.92-1.36-2.47-2.14-4.07-1.9c-2.5,0.38-4.25,3.01-3.94,5.91c0.26,2.4,1.88,4.21,3.87,4.53c-1.63,3.71-5.92,11.72-12.19,10.79
		c-5.76-0.9-6.82-9.59-6.94-14.49c2.28-0.54,3.84-3.06,3.54-5.81c-0.31-2.87-2.56-4.89-5.03-4.51c-2.5,0.38-4.25,3.01-3.94,5.87
		c0.19,1.82,1.16,3.29,2.5,4.07c-1.92,3.2-6.21,9.05-12.72,9.96c-6.9,1.01-10.62-9.64-12.02-14.82c0.64,0.26,1.33,0.35,2.03,0.24
		c2.5-0.38,4.24-3.05,3.94-5.91c-0.31-2.87-2.56-4.88-5.06-4.5c-0.8,0.12-1.51,0.46-2.1,0.99c-0.1-0.93,0.28-1.54,1.24-2.63
		c1.24-1.37,2-5.38-1.34-8.1C169.42,19.24,168.02,17.53,167.09,16.17z"/>
	<path class="st0" d="M207.58,241.75L256.1,128.2c4.85,3.09,9.33,6.83,13.17,10.96l0.04,0.04l0.04,0.05
		c8.43,11.43,14.43,24.76,17.92,38.51c5.34,21.1,5.33,38.76-1.54,55.76l-2.47,2.1l-23.27-55.75l-34.73,81.03
		c-4-1.86-7.23-5.02-9.13-9.08c-1.19-2.55-1.9-5.67-1.55-8.48l0.51-4.07l-3.92,1.21C209.95,240.85,208.75,241.28,207.58,241.75z"/>
	<path class="st0" d="M329.81,347.18l-142.08-1.83h-0.4l0.1,0.08l0.29-0.08c2.56-0.72,5.11-1.38,7.6-2.04
		c16.9-4.45,33.89-8.57,49.74-15.98h76.48l-30.49-73.04c18.53-32.38,17.43-73.42-1.32-108.41c-6.76-12.62-16.16-23.51-27.5-32.03
		l7.95-18.61h9.1l127.07,304.04c10.2,24.44,19.48,40.24,27.84,47.59c8.36,7.26,19.94,11.3,34.91,12.22v9.92H325.03v-9.92
		c14.52-0.74,24.35-3.12,29.49-7.26c5.14-4.14,7.63-9.19,7.63-15.16c0-7.9-3.59-20.4-10.75-37.49L329.81,347.18z"/>
	<path class="st0" d="M81.42,169.85c0.25-0.09-22.25,17.5-9.19,17.4c-9.04,9.19-7.74,24.51,1,16.32
		c-8.68,15.63,10.59,18.45,19.37,34.61c-8.65-34.26,1.5-70.77,21.68-98.95c1.01-0.95-24.19,25.64-69.58,24.43
		C45.28,166.89,66.41,178.71,81.42,169.85z"/>
	<path class="st0" d="M75.74,355.8c3.68-5.97,8.1-11.42,13.24-16.37c22.79-21.96,57.47-31.77,87.21-40.26
		c16.66-4.76,33.62-9.41,49.7-15.91c14.3-5.78,28.43-13.3,39.37-24.36c4.03-4.07,7.52-8.53,10.43-13.37
		c-13.48,11.48-33.2,24.4-49.61,18.56c-5.46-1.94-9.89-5.89-12.35-11.15c-1.38-2.95-2.2-6.58-1.78-9.94
		c-9.23,2.85-17.51,8.59-21.23,17.87c-2.16,5.37-2.95,14.11,1.75,18.46l12.11,11.2l-15.7-5.06c-31.37-10.1-60.92-4.48-84.5,18.87
		c-9.17,9.08-16.68,20.18-22.03,31.92C79.66,342.17,77.18,349,75.74,355.8z"/>
	<path class="st0" d="M233.16,317.93c12.29-4.75,24.44-10.53,34.95-18.8c10.39-8.25,18.81-19.76,20.99-32.81
		c-1.89,6.28-4.93,12.1-8.88,17.15c-3.98,5.09-8.83,9.36-14.11,12.97c-10.55,7.32-22.58,12.25-34.77,16.48
		c-24.53,8.29-50.14,13.56-75.33,21.31c-12.53,4.01-25.11,8.49-36.8,15.34c-5.8,3.49-11.3,7.53-16.06,12.74
		c-2.59,3.26-3.84,6.39-4.93,9.84c-0.99,3.41-1.53,6.98-1.28,10.66c0.23,3.63,1.41,7.45,3.79,10.5c2.27,2.88,5.51,5.21,8.95,6.37
		c6.95,2.58,15.12,0.71,20.23-4.3c2.52-2.41,4.61-5.67,5.14-9.24c0.59-3.52-0.12-7.19-1.93-10.17c-1.78-2.92-4.61-5.48-8.12-6.01
		c-3.44-0.51-6.95,1.04-8.87,3.71c2.21-2.46,5.69-3.45,8.68-2.68c3.03,0.7,5.34,3.15,6.72,5.86c1.38,2.73,1.7,5.92,0.98,8.78
		c-0.7,2.94-2.5,5.33-4.84,7.25c-4.54,3.9-11.09,4.92-16.37,2.61c-2.67-1.15-4.89-2.85-6.59-5.15c-1.56-2.21-2.34-4.94-2.4-7.79
		c-0.08-2.87,0.47-5.84,1.42-8.66c0.91-2.77,2.35-5.72,3.91-7.54c4.17-4.34,9.39-8.06,14.86-11.13c11-6.24,23.22-10.58,35.57-14.43
		C182.77,333.01,208.47,327.45,233.16,317.93z"/>
	<path class="st0" d="M168.46,350.05c7.69-4.47,17.03-6.82,26.19-9.29c18.44-4.8,37.65-9.38,55.04-18.68
		c8.68-4.58,16.8-10.32,23.71-17.29c6.83-7.03,12.53-15.08,16.46-23.89c-10.24,16.42-25.46,28.65-42.53,36.45
		c-17.12,7.94-35.72,12.07-54.42,16.79c-9.32,2.55-18.88,5-27.86,10.26c-4.4,2.69-8.65,6.59-10.95,11.65
		c-2.27,4.83-3.42,10.74-1.11,16.31c5.06,11.03,20.38,13.23,27.98,4.9c1.81-2.06,2.92-4.58,3.43-7.11c0.58-2.44,0.33-5.52-1.1-7.72
		c-1.37-2.29-3.88-3.9-6.51-3.87c-2.66,0.03-4.87,1.68-6.22,3.61c1.62-1.75,3.94-2.93,6.17-2.61c2.22,0.24,4.12,1.77,5.02,3.72
		c0.92,2.01,0.93,4.1,0.2,6.26c-0.68,2.11-1.82,4-3.38,5.39c-3.04,2.89-7.63,3.69-11.66,2.66c-4.02-0.98-7.68-3.74-8.85-7.24
		c-1.23-3.53-0.4-7.88,1.52-11.6C161.43,355.05,164.64,352.25,168.46,350.05z"/>
	<path class="st0" d="M122.57,410.42c-0.06-0.23-0.14-0.41-0.24-0.57c0.04-1.15-1.34-2.38-2.71-1.63
		c-10.37,5.69-27.86-3.83-29.22-15.19c-0.09-1-0.88-1.46-1.64-1.51c-0.92-0.31-2,0.01-2.19,1.23c-3.25,24.27,2.18,62.11,32.11,66.82
		c2.05,0.31,2.69-2.6,1-3.27c-6.87-7.47-15.74-16.13-14.54-28.96C111.26,433.69,124.54,423.51,122.57,410.42z"/>
	<path class="st0" d="M180.31,443.46c-0.2-0.08-0.4-0.11-0.6-0.15c-1.63-0.3-3.26,0.59-3.86,2.14c-0.68,1.77,0.2,3.78,2,4.45
		c1.77,0.66,3.74-0.21,4.43-1.97C182.97,446.12,182.08,444.14,180.31,443.46z"/>
	<path class="st0" d="M181.64,433.03c-0.17-0.03-0.37-0.07-0.55-0.07c-1.92-0.03-3.5,1.49-3.5,3.38c-0.04,1.91,1.49,3.45,3.37,3.49
		c1.92,0.05,3.46-1.46,3.5-3.36C184.5,434.76,183.26,433.33,181.64,433.03z"/>
	<path class="st0" d="M180.24,422.56c-0.88-0.16-1.83,0.04-2.58,0.54c-0.73,0.52-1.27,1.33-1.43,2.2c-0.16,0.88,0.04,1.82,0.54,2.57
		c1.01,1.49,3.31,1.92,4.8,0.9c0.73-0.52,1.26-1.33,1.42-2.21c0.16-0.88-0.04-1.82-0.53-2.57
		C181.93,423.26,181.12,422.73,180.24,422.56z"/>
	<path class="st0" d="M228.31,153.08c-7.52-4.03-13.11-12.28-11.12-20.93c3.31-14.36,19.25-16.22,30.89-11.2
		c8.62,3.71,16.72,9.54,23.12,16.4l0.14,0.15l0.12,0.17c8.62,11.71,14.78,25.35,18.35,39.43c8.15,32.19,4.08,56.8-17.14,82.77
		c-18.39,22.51-46.69,32.58-73.67,40.54c-27.93,8.25-57.42,14.42-82.9,29.08c-23.93,13.77-40.5,35.47-46.85,62.4
		c-3.47,14.7-3.07,30,1.3,44.46c4.39,14.5,12.57,27.47,23.7,37.74c21.77,20.09,55.59,29.43,82.57,14.11
		c7.76-4.41,14.57-10.65,19.84-17.84c11.24-15.33,15.76-35.41,7.33-53.12c-4.25-8.93-11.72-16.04-20.69-20.13
		c-8.15-3.73-17.76-4.99-26.38-2.15c-6.64,2.18-11.85,6.53-15.45,12.49c-3.16,5.23-5.3,11.77-3.31,17.82
		c1.24,3.75,4.14,7.09,8.01,8.21c5.83,1.68,14.55-2.77,16.34-8.53c1.52-4.87,4.62-9.11,9.78-10.39c7.77-1.94,15.51,3.77,19.56,9.95
		c5.41,8.27,5.74,18.28,1.1,26.99c-12.8,24.05-37.53,37.82-64.42,29.16c-19.27-6.21-34.38-19.36-42.71-37.86
		c-14.59-32.39-4.9-72.29,22.42-94.82c7.11-5.86,14.87-10.77,23.07-14.93c18.94-9.61,39.7-15.07,60.08-20.7
		c24.09-6.66,48.76-13.75,69.33-28.52c44.58-32.02,51.73-89.87,26.65-136.68c-8.64-16.12-21.68-29.32-37.63-38.25
		c-27.01-15.12-59.39-16.39-87.78-4.29c-6.45,2.75-12.5,6.31-18.09,10.54c-11.48,8.66-20.86,19.95-28.13,32.31
		c-11.67,19.83-19.03,44.52-18.96,67.61c0.04,15.9,3.99,36.99,19.02,45.7c7.74,4.48,21.9,6.32,25.82-4.03l0.05-0.12l0.05-0.12
		c0.02-0.05,0.05-0.12,0.08-0.19c-4.08,1.1-8.27,1.08-12.37-0.25c-11.78-3.83-18.82-16.93-21.14-28.37
		c-1.85-9.16-1.28-19.63,3.66-27.78l8.73-14.41c10.61,22.11,45.77,40.37,65.42,33.94c15.53-5.09,18.07-27.45,2.53-28.57
		c-7.96-0.57-15.2,9.87-25.52,7.94c-5.69-1.07-11.28-4.83-14.94-9.24c-5.18-6.24-6.99-13.93-5.67-21.88
		c0.87-5.28,3.2-9.61,7.54-12.8c9.2-6.78,21.66-4.83,23.76-18.87c2-13.39,11.37-29.84,25.99-31.92l13.79-1.95l-11.06,8.46
		c-3.04,2.33-4.95,7.41-5.77,11.01c-1.22,5.35-1.17,11.32,0.55,16.56C201.87,152.15,215.51,154.53,228.31,153.08z"/>
	<path class="st0" d="M73.43,153.56c-16.43-1.61-24.39-9.64-28.6-19.9c-3.86-9.48-2.19-22.95,7.36-28.56
		c8.38-4.93,15.6-4.15,19.88,2.65c2.84,4.52,0.9,13.62-4.43,16.41c-4.21,2.21-8.4,4.46-10.31,9.13
		c-2.43,5.95,13.47,23.94,53.28-2.89c-24.97,7.62-43.07-25.27-17.49-40.95c14.78-9.06,31.78,4.03,26.21,15.99
		c-2.96,6.38-10.98,6.64-14.98,1.6c-2.66-3.3-1.48-9.28,3.54-9.9c0.12-0.02,0.19,0.11,0.28,0.19c5.56-6.76-8.16-9.86-12.3-3.94
		c-3.24,4.63-5.58,14.13-0.28,21.27c4.63,6.23,20.85,6.34,34.14-3.79c18.18-13.86,64.84-32.59,92.98-15.27
		c1.06,0.65,2.07,1.35,3.05,2.09c-40.51-12.06-71.7,2.27-108.71,32.7C105.46,139.9,89.47,155.13,73.43,153.56z"/>
	<path class="st0" d="M128.08,465.4c0.73-0.52,1.26-1.31,1.43-2.22c0.16-0.88-0.04-1.82-0.54-2.53c-0.53-0.78-1.33-1.31-2.2-1.48
		c-0.92-0.17-1.83,0.04-2.59,0.58c-0.72,0.48-1.26,1.29-1.42,2.17c-0.17,0.91,0.01,1.84,0.53,2.59
		C124.29,465.98,126.56,466.41,128.08,465.4z"/>
	<path class="st0" d="M145.94,471.95c1.9-0.05,3.38-1.63,3.32-3.53c-0.04-1.65-1.26-3-2.81-3.29c-0.2-0.04-0.48-0.05-0.72-0.06
		c-1.9,0.05-3.38,1.63-3.32,3.53C142.47,470.51,144.04,472.02,145.94,471.95z"/>
	<path class="st0" d="M166.38,459.07c-0.85-0.16-1.72-0.01-2.47,0.48c-1.62,0.99-2.09,3.12-1.09,4.72c1.02,1.62,3.14,2.09,4.76,1.1
		c1.59-1.04,2.09-3.14,1.05-4.73C168.09,459.78,167.28,459.24,166.38,459.07z"/>
	<path class="st0" d="M171.45,458.28c1.45,1.22,3.62,1.06,4.87-0.4c1.22-1.43,1.06-3.61-0.39-4.83c-0.47-0.44-1.03-0.67-1.61-0.78
		c-1.15-0.22-2.41,0.19-3.25,1.15l0.04,0.01C169.86,454.85,170.01,457.03,171.45,458.28z"/>
	<path class="st0" d="M157.17,470.08c1.81-0.53,2.84-2.48,2.31-4.28c-0.39-1.27-1.45-2.13-2.67-2.36c-0.51-0.1-1.07-0.1-1.62,0.08
		c-1.82,0.57-2.84,2.46-2.28,4.29C153.44,469.63,155.35,470.64,157.17,470.08z"/>
	<path class="st0" d="M138.74,468.23c0.55-1.81-0.53-3.73-2.35-4.25c-0.09-0.05-0.2-0.07-0.29-0.09c-1.73-0.32-3.46,0.72-3.96,2.44
		c-0.52,1.84,0.52,3.71,2.34,4.26C136.31,471.09,138.22,470.06,138.74,468.23z"/>
</g>
</svg>
