<?xml version="1.0" encoding="UTF-8"?>
<svg id="Group_23" data-name="Group 23" xmlns="http://www.w3.org/2000/svg" viewBox="0 0 171.28 55.37">
  <defs>
    <style>
      .cls-1 {
        fill: #432;
      }
    </style>
  </defs>
  <path class="cls-1" d="M8.05,46.8c-.64,0-.82,.15-1.08,.7l-1.57,4.11c-.8,1.78,1.14,2.4,2.54,2.44,.33-.01,.45,.33,.45,.59,.03,1.32-3.48,.06-4.43,.32-1.01-.27-4.42,1.24-3.92-.68,.09-.28,.62-.24,.86-.3,1.76-.21,2.56-1.55,3.17-3.17l7.88-19.84c.16-.44,1.08-.3,1.32,0,1.91,4.91,3.99,10.22,6,15.18,1.55,2.85,1.67,7.39,5.33,7.9,.42,.08,.45,.69,.3,1.01-1.49,.53-3.04-.28-4.72-.1-1.9-.19-3.92,.65-5.59,.09-.22-.34-.16-.95,.33-.99,2.14-.12,2.74-1.02,2.02-2.98-.53-1.14-.77-3.07-1.8-4.15-.47-.25-6.45-.07-7.1-.12m6-1.36c.59-.01,.92-.12,.66-.73l-3.03-8.16c-.07-.23-.49-.23-.56,0l-3.17,8.16c-.22,.58-.06,.72,.49,.73h5.61Z"/>
  <path class="cls-1" d="M66.9,46.76c-.64,0-.82,.15-1.08,.7l-1.57,4.11c-.8,1.78,1.14,2.4,2.54,2.44,.33-.01,.45,.33,.45,.59,.03,1.32-3.48,.06-4.43,.31-1.01-.27-4.42,1.25-3.92-.68,.09-.28,.62-.24,.86-.3,1.76-.21,2.56-1.55,3.17-3.17l7.88-19.84c.16-.44,1.08-.3,1.32,0,1.91,4.91,3.99,10.22,6,15.18,1.55,2.85,1.67,7.39,5.33,7.9,.42,.08,.45,.69,.3,1.01-1.49,.53-3.04-.28-4.72-.1-1.9-.19-3.92,.65-5.59,.09-.22-.34-.16-.95,.33-.99,2.14-.12,2.74-1.02,2.02-2.98-.53-1.14-.77-3.07-1.8-4.15-.47-.25-6.45-.07-7.1-.12m6-1.36c.59-.01,.92-.12,.66-.73l-3.03-8.16c-.07-.23-.49-.23-.56,0l-3.17,8.16c-.22,.58-.06,.72,.49,.73h5.61Z"/>
  <path class="cls-1" d="M30.4,35.33c.18-2.39-.95-3.33-3.24-3.31-.61-.03-.63-1.18,0-1.19,2.3,.15,5.41-.29,7.56,.51l7.31,17.18c.09,.16,.23,.13,.33,0l7.2-17.18c1.92-.6,5.21-.38,7.27-.51,.57,.03,.5,1.09,0,1.19-3.7,.31-3.37,1.84-3.39,5.15v13.29c-.16,2.77,.83,3.55,3.49,3.67,.44,.08,.6,.71,.34,1.04-1.8,.55-3.87-.27-5.74-.11-1.79-.18-4.2,.65-5.8,.11-.21-.33-.11-.96,.33-1.05,2.7-.13,3.62-.89,3.46-3.67v-13.36c.03-.36-.6-.27-.65,0l-5.19,12.21c-.76,1.77-1.45,3.87-2.09,5.76-.17,.3-.91,.3-1.08,0l-7.92-18.15c-.08-.23-.57-.36-.54,.04v13.4c-.15,2.53,.86,3.77,3.31,3.82,.4,.1,.43,.7,.27,1.01-1.26,.53-2.74-.29-4.3-.11-1.58-.19-3.26,.62-4.5,.11-.22-.33-.18-.94,.29-1.01,2.7-.09,3.38-1.1,3.28-3.82v-15.02"/>
  <path class="cls-1" d="M108.6,47.8c-3.13,7.85-14.38,9.81-20.3,4.01-8.01-7.96-2.18-21.46,9.19-21.08,8.79-.45,14.64,9.4,11.11,17.07m-3.64-8.99c-.99-5.3-6.54-9.71-11.61-6.47-4.63,3.19-5.23,10.03-4.04,15.13,1.36,7.18,10.04,10.23,14.11,3.41,2.11-3.53,2.55-8.06,1.55-12.06"/>
  <path class="cls-1" d="M125.16,50.46c-.19,2.85,.75,3.54,3.49,3.67,.44,.08,.6,.71,.34,1.04-1.8,.55-3.87-.27-5.74-.11-1.79-.18-4.2,.65-5.8,.11-.21-.33-.12-.96,.32-1.05,2.7-.13,3.62-.88,3.46-3.67v-15.99c.23-2.77-3.4-1.99-5.11-1.82-2.15,.5-2.5,2.43-2.95,4.48-.09,.51-1.09,.43-1.15-.04,.19-1.79,.24-3.68,0-5.47,.05-.68,1.05-.65,1.62-.68h19.27c.65,.05,1.51-.06,1.58,.65-.29,1.72-.18,3.75,0,5.51-.07,.48-1.12,.61-1.23,.07-.27-1.57-.51-2.83-1.53-3.8-1.35-1.19-7-1.78-6.57,1.1v15.99"/>
  <path class="cls-1" d="M160.74,47.8c-3.13,7.85-14.38,9.81-20.3,4.01-8.01-7.96-2.18-21.46,9.19-21.08,8.79-.45,14.64,9.4,11.11,17.07m-3.64-8.99c-.99-5.3-6.54-9.71-11.61-6.47-4.63,3.19-5.23,10.03-4.04,15.13,1.36,7.18,10.04,10.23,14.11,3.41,2.11-3.53,2.55-8.06,1.55-12.06"/>
  <path class="cls-1" d="M170.93,52.75c0,1.33-1.08,2.41-2.41,2.41s-2.41-1.08-2.41-2.41,1.08-2.41,2.41-2.41,2.41,1.08,2.41,2.41"/>
  <g>
    <path class="cls-1" d="M26.33,7.1c-.47-.14-1.14-.22-1.72-.22-.72,3.4-4.59,5.98-9.21,5.98h-.39c-.31,.39-.61,.78-.89,1.2-3.65,4.3-6.88,5.04-9.84,5.67-.84,.18-3.35,.48-4.27,.23l.06-.22c.42,.08,.81,.11,1.17,.11,3.73,0,8.82-2.17,13.3-7.04-.95-.14-1.98-.5-2.65-1.09l.11-.14c.69,.61,1.75,.95,2.7,1.03,.06-.03,.08-.08,.14-.14,2.95-3.28,6.18-5.76,9.6-5.82,.06-.31,.08-.61,.08-.95C24.52,2.67,21.27,.22,17.23,.22,8.8,.22,1.7,5.96,1.7,10.33c0,1.2,1.09,2.09,3,2.09,5.59,0,11.83-4.31,13.5-10.1l.14,.06c-1.53,6.21-7.32,10.27-13.64,10.27-2.06,0-3.23-1-3.23-2.34C1.48,5.96,8.69,0,17.23,0c4.15,0,7.51,2.56,7.51,5.71,0,.34-.03,.64-.08,.95,.58,.03,1.28,.14,1.73,.25l-.06,.2Zm-1.95-.22c-3.01,.08-6.23,2.03-9.21,5.76h.22c4.51,0,8.24-2.5,8.99-5.76"/>
    <path class="cls-1" d="M18.37,14.68l-2,2.91,.03,.03c.15-.18,.33-.38,.56-.62,.22-.23,.47-.48,.74-.72,.27-.25,.55-.49,.84-.73,.29-.24,.58-.46,.87-.65,.05-.1,.11-.19,.17-.25,.06-.06,.19-.09,.38-.09,.12,0,.22,0,.31,0,.09,0,.18,.01,.28,.02-.18,.18-.35,.4-.52,.65-.17,.26-.25,.54-.25,.84,0,.24,.06,.43,.18,.57,.12,.14,.27,.21,.45,.21,.16,0,.31-.03,.46-.09,.15-.06,.3-.14,.43-.24,.14-.09,.27-.19,.39-.3,.13-.1,.23-.2,.33-.28l.09,.06c-.1,.1-.22,.22-.36,.34-.14,.12-.28,.23-.44,.34-.16,.1-.32,.19-.5,.26-.18,.07-.36,.1-.55,.1-.34,0-.61-.1-.81-.31-.21-.21-.31-.49-.31-.86,0-.25,.06-.48,.17-.68l-.03-.03c-.43,.29-.9,.68-1.42,1.16-.51,.48-1.06,1.04-1.64,1.69-.21,.23-.43,.53-.65,.91-.23,.38-.42,.77-.59,1.17h-1.02c.57-.9,1.13-1.8,1.7-2.69,.57-.89,1.15-1.8,1.75-2.72h.96Z"/>
    <path class="cls-1" d="M24.16,14.68c-.58,.83-1.07,1.53-1.46,2.09s-.72,1.04-.97,1.42c-.25,.38-.42,.68-.53,.9-.11,.22-.17,.4-.17,.53,0,.27,.11,.41,.33,.41,.21,0,.45-.07,.73-.23,.28-.15,.57-.35,.87-.59,.3-.24,.61-.51,.91-.82,.3-.31,.59-.61,.86-.91,.27-.3,.5-.59,.71-.87,.21-.28,.36-.51,.45-.68l.13,.08c-.13,.21-.3,.46-.51,.76-.22,.29-.46,.6-.73,.91-.27,.31-.56,.62-.86,.92-.31,.3-.61,.58-.93,.82-.31,.24-.62,.44-.92,.58-.3,.15-.57,.22-.83,.22-.28,0-.49-.08-.63-.23s-.21-.33-.21-.52c0-.22,.05-.45,.15-.7s.26-.55,.48-.91c.22-.36,.51-.79,.86-1.3,.35-.51,.77-1.13,1.27-1.88h1.01Zm.91-2.93c.15,0,.27,.05,.36,.15,.09,.1,.14,.22,.14,.37s-.05,.27-.14,.37c-.09,.1-.22,.15-.36,.15s-.27-.05-.36-.15c-.09-.1-.14-.22-.14-.37s.05-.27,.14-.37c.09-.1,.22-.15,.36-.15"/>
    <path class="cls-1" d="M28.03,14.68c-.2,.26-.45,.59-.76,.99-.3,.4-.6,.82-.89,1.25-.29,.44-.54,.87-.75,1.3-.21,.43-.32,.8-.32,1.12,0,.19,.06,.35,.17,.49,.11,.14,.31,.21,.58,.21,.41,0,.83-.16,1.26-.49,.43-.32,.82-.72,1.18-1.19,.36-.47,.65-.95,.88-1.45,.23-.5,.35-.92,.35-1.26,0-.08-.02-.17-.06-.27-.04-.09-.07-.2-.07-.32,0-.12,.04-.24,.11-.35,.07-.1,.18-.16,.32-.16,.15,0,.28,.08,.38,.25,.11,.17,.17,.46,.17,.86,0,.12,0,.22-.02,.32-.02,.1-.03,.2-.04,.29,.12,.16,.28,.29,.5,.39,.22,.1,.44,.15,.65,.15,.27,0,.56-.07,.87-.21,.31-.14,.56-.37,.76-.7l.13,.08c-.07,.16-.18,.3-.31,.42-.13,.13-.28,.23-.43,.32-.16,.09-.33,.16-.51,.21-.18,.05-.36,.07-.53,.07-.23,0-.45-.05-.66-.15-.21-.1-.39-.21-.53-.34-.13,.41-.35,.83-.67,1.27-.32,.44-.69,.83-1.11,1.2-.42,.36-.87,.66-1.35,.89-.48,.23-.95,.35-1.41,.35s-.78-.1-1.01-.31c-.24-.21-.36-.54-.36-1.02,0-.31,.1-.66,.29-1.03,.19-.37,.42-.75,.68-1.13,.26-.38,.53-.75,.8-1.11,.27-.36,.49-.67,.66-.94h1.02Z"/>
    <path class="cls-1" d="M37.86,14.68h1.02c-.39,.54-.76,1.08-1.12,1.59-.36,.51-.67,.99-.95,1.42-.28,.44-.5,.82-.67,1.15-.17,.33-.25,.59-.25,.78,0,.27,.14,.41,.42,.41,.22,0,.5-.11,.84-.32,.34-.22,.71-.51,1.11-.89,.4-.38,.81-.82,1.23-1.32,.42-.51,.82-1.04,1.2-1.61l.09,.03c-.28,.43-.62,.89-1,1.39-.38,.5-.79,.96-1.2,1.39-.42,.43-.84,.79-1.26,1.08-.42,.29-.81,.43-1.18,.43-.3,0-.53-.08-.67-.23-.14-.15-.21-.33-.21-.54,0-.15,.02-.29,.07-.43s.1-.29,.15-.43l-.03-.02c-.14,.15-.31,.32-.51,.51-.2,.19-.42,.37-.66,.54-.23,.17-.48,.31-.73,.43-.25,.11-.49,.17-.72,.17-.39,0-.66-.12-.82-.36s-.24-.51-.24-.82c0-.43,.14-.9,.41-1.42,.27-.52,.62-1.01,1.04-1.46,.42-.46,.88-.84,1.37-1.14,.49-.3,.96-.46,1.4-.46,.21,0,.39,.03,.55,.09,.16,.06,.29,.14,.39,.24,.1,.1,.19,.21,.24,.34,.06,.13,.1,.26,.13,.39h.03l.52-.93Zm-5.15,4.41c0,.24,.05,.43,.15,.56,.1,.13,.24,.2,.42,.2s.39-.07,.63-.2c.24-.13,.49-.31,.76-.53,.26-.22,.52-.48,.78-.76,.26-.29,.49-.6,.68-.92,.2-.33,.36-.66,.49-.99,.12-.34,.19-.65,.19-.96,0-.24-.07-.42-.2-.55-.14-.13-.3-.19-.5-.19-.32,0-.67,.14-1.06,.41-.39,.27-.75,.62-1.1,1.05-.35,.43-.64,.9-.87,1.41-.23,.51-.35,1.01-.35,1.48"/>
    <path class="cls-1" d="M43.81,12.86l-1.24,1.82h2.08l-.09,.19h-2.11c-.42,.68-.79,1.27-1.12,1.77-.33,.5-.61,.93-.83,1.29-.22,.36-.39,.67-.51,.91s-.17,.46-.17,.65,.07,.34,.2,.42c.14,.08,.29,.12,.47,.12,.38,0,.8-.14,1.25-.43,.46-.29,.91-.64,1.36-1.06,.45-.42,.88-.87,1.29-1.34,.41-.47,.76-.9,1.04-1.27l.09,.06c-.36,.45-.75,.93-1.17,1.42-.42,.5-.86,.95-1.31,1.37-.45,.41-.9,.76-1.36,1.03-.46,.27-.89,.41-1.3,.41-.32,0-.6-.1-.84-.3-.24-.2-.36-.48-.36-.83,0-.24,.07-.51,.21-.81,.14-.3,.31-.62,.53-.97,.22-.35,.47-.72,.75-1.13,.28-.41,.56-.84,.86-1.31h-.85l.09-.19h.88l1.23-1.82h.94Z"/>
    <path class="cls-1" d="M51.19,16.02c-.16,.26-.35,.55-.59,.86-.24,.32-.5,.63-.8,.94-.3,.31-.62,.61-.96,.9-.34,.29-.7,.54-1.06,.77-.37,.23-.74,.4-1.11,.54-.37,.13-.74,.2-1.09,.2-.44,0-.78-.11-1.02-.34s-.36-.55-.36-.97c0-.46,.14-.94,.42-1.45,.28-.51,.63-.98,1.06-1.41,.43-.43,.9-.79,1.41-1.07,.51-.28,1.01-.42,1.48-.42,.26,0,.47,.06,.61,.17,.15,.11,.22,.27,.22,.48,0,.25-.14,.5-.41,.73-.27,.24-.61,.45-1,.65-.39,.19-.82,.37-1.27,.52-.45,.15-.85,.26-1.2,.34-.12,.21-.21,.44-.28,.71-.07,.26-.11,.52-.11,.79,0,.13,.01,.25,.04,.37,.03,.12,.07,.23,.13,.33,.06,.1,.14,.18,.24,.24,.1,.06,.22,.09,.37,.09,.35,0,.75-.11,1.22-.34,.47-.22,.94-.53,1.42-.9,.48-.38,.94-.81,1.38-1.29,.44-.48,.82-.98,1.13-1.5l.13,.08Zm-2.55-.83c0-.15-.04-.26-.12-.33-.08-.07-.18-.11-.29-.11-.22,0-.46,.09-.72,.26-.26,.17-.51,.39-.76,.65-.25,.26-.48,.53-.68,.83s-.36,.56-.46,.79c.23-.04,.52-.12,.86-.24,.35-.12,.68-.27,1-.45,.32-.18,.6-.38,.82-.62,.23-.24,.35-.49,.35-.76"/>
    <path class="cls-1" d="M82.12,9.04c.3,0,.4,0,.65,.09l-.07,.12c-.21-.07-.31-.07-.37-.07-.07,0-.14,0-.21,.02-.05,1.7-1.73,3.06-2.5,3.06-.21,0-.38-.18-.38-.4,0-.96,1.1-2.59,2.75-2.8-.05-1.19-1.43-2.15-3.12-2.15-4,0-5.27,3.85-6.77,6.88,.96,1.1,1.54,2.41,1.54,3.81,0,4.23-5.02,7.68-11.21,7.68-4.57,0-9.13-1.75-12.21-5.2l.07-.07c3.15,3.36,7.61,5.13,12.14,5.13,6.11,0,11.07-3.38,11.07-7.52,0-1.35-.54-2.61-1.47-3.69-2.01,4.13-4.09,6.28-9.55,6.28-2.4,0-7.75-.8-7.75-4.11,0-3.1,4.06-5.61,9.06-5.61,3.29,0,6.19,1.17,7.98,2.96,2.36-4.43,3.73-6.66,7.1-6.66,1.77,0,3.2,1,3.26,2.27m-10.43,4.53c-1.75-1.78-4.65-2.96-7.91-2.96-4.93,0-8.92,2.45-8.92,5.46,0,2.73,4.09,3.66,6.21,3.66,5.37,0,8.87-3.01,10.62-6.16m10.29-4.34c-1.19,.32-2.61,2.05-2.61,2.62,0,.14,.1,.26,.24,.26,.7,0,2.29-1.29,2.36-2.89"/>
    <path class="cls-1" d="M81.38,14.68h1.02c-.39,.54-.76,1.08-1.12,1.59-.36,.51-.67,.99-.95,1.42-.28,.44-.5,.82-.67,1.15-.17,.33-.25,.59-.25,.78,0,.27,.14,.41,.42,.41,.22,0,.5-.11,.84-.32,.34-.22,.71-.51,1.11-.89,.4-.38,.81-.82,1.23-1.32,.42-.51,.82-1.04,1.2-1.61l.09,.03c-.28,.43-.62,.89-1,1.39-.38,.5-.79,.96-1.2,1.39-.42,.43-.84,.79-1.26,1.08-.42,.29-.81,.43-1.18,.43-.3,0-.53-.08-.67-.23-.14-.15-.21-.33-.21-.54,0-.15,.02-.29,.07-.43,.05-.14,.1-.29,.15-.43l-.03-.02c-.14,.15-.31,.32-.51,.51-.2,.19-.42,.37-.66,.54-.23,.17-.48,.31-.73,.43-.25,.11-.49,.17-.72,.17-.39,0-.66-.12-.82-.36-.16-.24-.24-.51-.24-.82,0-.43,.14-.9,.41-1.42,.27-.52,.62-1.01,1.04-1.46,.42-.46,.88-.84,1.37-1.14,.49-.3,.96-.46,1.4-.46,.21,0,.39,.03,.55,.09,.16,.06,.29,.14,.39,.24,.1,.1,.19,.21,.24,.34,.06,.13,.1,.26,.13,.39h.03l.52-.93Zm-5.15,4.41c0,.24,.05,.43,.15,.56,.1,.13,.24,.2,.42,.2s.39-.07,.63-.2c.24-.13,.49-.31,.76-.53,.26-.22,.52-.48,.78-.76,.26-.29,.49-.6,.68-.92,.2-.33,.36-.66,.49-.99,.12-.34,.19-.65,.19-.96,0-.24-.07-.42-.2-.55-.14-.13-.3-.19-.5-.19-.32,0-.67,.14-1.06,.41-.39,.27-.75,.62-1.1,1.05-.35,.43-.64,.9-.87,1.41-.23,.51-.35,1.01-.35,1.48"/>
    <path class="cls-1" d="M89.83,9.15c-.94,1.42-1.75,2.64-2.44,3.67-.69,1.03-1.29,1.92-1.78,2.65-.5,.73-.9,1.34-1.21,1.82-.31,.48-.56,.87-.74,1.17-.18,.31-.3,.55-.37,.72-.07,.18-.1,.33-.1,.46,0,.26,.12,.39,.35,.39,.26,0,.57-.11,.92-.32,.35-.22,.73-.51,1.13-.88,.4-.37,.82-.81,1.24-1.31,.42-.5,.83-1.03,1.23-1.6l.17,.06c-.38,.54-.78,1.05-1.2,1.55-.42,.5-.82,.93-1.21,1.3-.51,.48-.96,.83-1.33,1.05-.37,.22-.71,.33-1.01,.33-.33,0-.56-.07-.7-.22-.14-.15-.21-.34-.21-.58,0-.22,.04-.45,.12-.68,.08-.24,.21-.52,.4-.85,.19-.33,.44-.73,.75-1.2,.31-.47,.69-1.05,1.15-1.74,.46-.69,.99-1.51,1.61-2.45,.62-.95,1.33-2.06,2.14-3.34h1.1Z"/>
    <path class="cls-1" d="M95.51,16.12c-.25,.28-.54,.51-.85,.68-.32,.17-.63,.25-.93,.25s-.54-.07-.76-.2c-.21-.13-.37-.29-.49-.47h-.03c-.1,.4-.3,.82-.58,1.27-.28,.45-.62,.87-1.01,1.24-.39,.38-.83,.69-1.3,.94-.47,.25-.95,.38-1.45,.38-.45,0-.79-.13-1.02-.39-.23-.26-.35-.61-.35-1.05,0-.23,.06-.5,.17-.8,.11-.3,.27-.61,.48-.92,.21-.31,.45-.62,.72-.91,.28-.3,.58-.57,.91-.8,.32-.23,.67-.42,1.03-.57,.36-.14,.73-.21,1.09-.21,.43,0,.76,.13,1,.38,.23,.25,.36,.58,.38,.97,.02,.24,.13,.47,.34,.67,.2,.21,.48,.31,.84,.31,.32,0,.61-.08,.89-.24s.54-.36,.78-.61l.13,.08Zm-7.92,3.04c0,.27,.05,.49,.16,.65s.26,.24,.47,.24c.28,0,.56-.08,.84-.23,.28-.15,.54-.35,.8-.6,.26-.25,.5-.53,.72-.84,.22-.31,.41-.64,.57-.97,.16-.34,.29-.66,.39-.98,.09-.32,.14-.61,.14-.87,0-.22-.05-.41-.16-.56s-.28-.23-.51-.23c-.22,0-.46,.07-.71,.21-.25,.14-.51,.33-.76,.56-.26,.23-.5,.5-.73,.8-.23,.3-.44,.62-.62,.94-.18,.33-.33,.65-.43,.98-.1,.32-.16,.63-.16,.91"/>
    <path class="cls-1" d="M97.4,14.68l-2.08,2.88,.03,.03c.22-.26,.48-.57,.77-.92,.29-.35,.61-.68,.94-1,.34-.31,.68-.58,1.05-.79,.36-.22,.72-.32,1.08-.32,.32,0,.56,.09,.73,.26s.26,.4,.26,.67c0,.17-.06,.37-.18,.6-.12,.23-.27,.48-.45,.74-.18,.26-.37,.53-.58,.8-.21,.27-.4,.53-.58,.78-.18,.25-.33,.47-.45,.68s-.18,.37-.18,.51c0,.29,.15,.44,.44,.44,.34,0,.69-.11,1.07-.34,.38-.22,.83-.61,1.35-1.14,.21-.21,.42-.44,.64-.69,.22-.25,.42-.5,.62-.75,.2-.25,.38-.48,.54-.7,.16-.22,.29-.4,.39-.55l.11,.06c-.21,.32-.48,.69-.81,1.12-.33,.44-.69,.86-1.08,1.28-.23,.25-.47,.49-.71,.72-.24,.23-.48,.43-.73,.61-.24,.17-.48,.31-.71,.41-.24,.1-.47,.15-.7,.15-.3,0-.56-.08-.76-.25-.2-.17-.3-.4-.3-.69,0-.31,.13-.66,.38-1.03,.25-.37,.53-.75,.83-1.13,.3-.38,.58-.74,.83-1.09,.25-.35,.38-.65,.38-.91,0-.13-.04-.22-.13-.28-.08-.06-.2-.09-.33-.09-.26,0-.55,.1-.88,.29-.33,.2-.66,.45-1,.77-.34,.32-.68,.68-1.02,1.07-.34,.39-.66,.79-.95,1.18-.29,.39-.55,.77-.79,1.13-.23,.36-.4,.66-.52,.91h-.97c.27-.46,.56-.93,.87-1.41,.31-.48,.62-.95,.92-1.42,.3-.47,.6-.92,.87-1.35,.28-.43,.53-.83,.75-1.19l1.02-.05Z"/>
  </g>
  <g>
    <path class="cls-1" d="M122.71,5.68c0,.45,.05,.5,.46,.51v.13h-1.54v-.13c.4-.01,.44-.06,.44-.51V3.28c0-.45-.05-.51-.44-.51v-.13h2.7l.07,1.02h-.17c-.12-.65-.39-.88-1.07-.88h-.46v1.56h.38c.52,0,.66-.11,.71-.57h.16v1.29h-.16c-.06-.48-.18-.58-.71-.58h-.38v1.2Z"/>
    <path class="cls-1" d="M125.32,3.15c.29-.37,.77-.58,1.32-.58s1.02,.21,1.32,.58c.27,.33,.42,.82,.42,1.34s-.15,1-.42,1.34c-.3,.37-.77,.58-1.32,.58s-1.03-.21-1.32-.58c-.27-.34-.42-.82-.42-1.34s.15-.99,.42-1.34Zm.55,2.66c.16,.31,.42,.46,.77,.46s.61-.16,.76-.46c.17-.34,.25-.74,.25-1.33s-.08-.99-.25-1.32c-.16-.31-.41-.46-.76-.46s-.61,.16-.77,.46c-.17,.34-.25,.75-.25,1.32s.08,.99,.25,1.33Z"/>
    <path class="cls-1" d="M129.88,5.69c0,.45,.04,.49,.44,.51v.13h-1.53v-.13c.4-.01,.44-.06,.44-.51V3.28c0-.45-.04-.49-.42-.51v-.13h1.51c.41,0,.76,.05,.96,.15,.31,.15,.45,.38,.45,.75,0,.6-.37,.91-1.15,.97v.04c.26,.03,.43,.11,.61,.26,.16,.14,.25,.29,.48,.84,.19,.45,.28,.54,.51,.56v.12h-.97c-.23-.69-.37-1.05-.51-1.33-.16-.31-.31-.41-.63-.41h-.2v1.1Zm.27-1.25c.59,0,.9-.3,.9-.85s-.28-.81-.87-.81h-.3v1.66h.27Z"/>
    <path class="cls-1" d="M135.55,6.34h-.4l-.73-2.94c-.07-.29-.14-.44-.22-.53-.06-.06-.13-.09-.29-.11v-.12h1.52v.12c-.2,.01-.27,.03-.33,.08-.06,.04-.09,.11-.09,.2,0,.09,.02,.22,.07,.41l.51,2.13,.83-2.88h.44l.76,2.86,.53-2.02c.04-.16,.07-.33,.07-.44,0-.15-.07-.26-.22-.31-.06-.02-.14-.03-.26-.04v-.12h1.25v.12c-.35,.05-.47,.21-.64,.84l-.74,2.74h-.39l-.79-2.93-.87,2.93Z"/>
    <path class="cls-1" d="M139.54,3.15c.29-.37,.77-.58,1.32-.58s1.02,.21,1.32,.58c.27,.33,.42,.82,.42,1.34s-.15,1-.42,1.34c-.3,.37-.77,.58-1.32,.58s-1.03-.21-1.32-.58c-.27-.34-.42-.82-.42-1.34s.15-.99,.42-1.34Zm.55,2.66c.16,.31,.42,.46,.77,.46s.61-.16,.76-.46c.17-.34,.25-.74,.25-1.33s-.08-.99-.25-1.32c-.16-.31-.41-.46-.76-.46s-.61,.16-.77,.46c-.17,.34-.25,.75-.25,1.32s.08,.99,.25,1.33Z"/>
    <path class="cls-1" d="M143.66,5.34c0,.37,.03,.55,.09,.67,.08,.13,.18,.17,.42,.19v.13h-1.23v-.13c.41-.02,.51-.19,.51-.85V3.27c0-.27-.02-.36-.11-.43-.06-.05-.13-.07-.32-.07v-.13h1.18l1.08,2.78,1.09-2.78h1.13v.13c-.39,.01-.43,.06-.43,.52v2.4c0,.45,.04,.5,.44,.51v.13h-1.52v-.13c.4,0,.44-.06,.44-.51V2.97l-1.27,3.26h-.26l-1.26-3.22v2.34Z"/>
    <path class="cls-1" d="M148,6.2c.4,0,.44-.06,.44-.51V3.28c0-.45-.05-.51-.44-.51v-.13h2.7l.09,1.05h-.17c-.1-.68-.36-.91-1.06-.91h-.48v1.55h.35c.53,0,.66-.1,.71-.57h.16v1.29h-.16c-.06-.48-.18-.58-.71-.58h-.35v1.71h.54c.66,0,.94-.26,1.08-1.02l.16,.02-.1,1.15h-2.76v-.13Z"/>
    <path class="cls-1" d="M152.04,5.38c0,.65,.09,.79,.51,.81v.13h-1.24v-.13c.42-.02,.52-.18,.52-.85v-1.96c0-.48-.08-.59-.48-.62v-.13h1.03l2.01,2.84v-1.85c0-.37-.02-.55-.09-.67-.07-.13-.18-.17-.43-.19v-.13h1.25v.13c-.24,0-.34,.06-.42,.19-.07,.12-.1,.32-.1,.63v2.75h-.36l-2.2-3.14v2.18Z"/>
    <path class="cls-1" d="M157.53,3.15c.29-.37,.77-.58,1.32-.58s1.02,.21,1.32,.58c.27,.33,.42,.82,.42,1.34s-.15,1-.42,1.34c-.3,.37-.77,.58-1.32,.58s-1.03-.21-1.32-.58c-.27-.34-.42-.82-.42-1.34s.15-.99,.42-1.34Zm.55,2.66c.16,.31,.42,.46,.77,.46s.61-.16,.76-.46c.17-.34,.25-.74,.25-1.33s-.08-.99-.25-1.32c-.16-.31-.41-.46-.76-.46s-.61,.16-.77,.46c-.17,.34-.25,.75-.25,1.32s.08,.99,.25,1.33Z"/>
    <path class="cls-1" d="M161.65,5.38c0,.65,.09,.79,.51,.81v.13h-1.24v-.13c.42-.02,.52-.18,.52-.85v-1.96c0-.48-.08-.59-.48-.62v-.13h1.03l2.01,2.84v-1.85c0-.37-.02-.55-.09-.67-.07-.13-.18-.17-.43-.19v-.13h1.25v.13c-.24,0-.34,.06-.42,.19-.07,.12-.1,.32-.1,.63v2.75h-.36l-2.2-3.14v2.18Z"/>
    <path class="cls-1" d="M164.93,6.2c.42-.01,.47-.06,.47-.51V3.28c0-.45-.04-.5-.45-.51v-.13h1.54v.13c-.41,.01-.45,.06-.45,.51v2.9h.45c.41,0,.69-.12,.87-.38,.11-.17,.17-.32,.23-.66l.17,.02-.11,1.16h-2.72v-.13Z"/>
    <path class="cls-1" d="M169.74,5.68c0,.45,.04,.5,.5,.51v.13h-1.65v-.13c.46-.01,.5-.06,.5-.51v-.94l-.91-1.49c-.22-.36-.33-.46-.56-.49v-.13h1.55v.13c-.27,.01-.37,.07-.37,.2,0,.08,.03,.15,.16,.36l.67,1.11,.66-1.06c.09-.15,.14-.28,.14-.37s-.06-.16-.16-.2c-.08-.02-.14-.03-.29-.04v-.13h1.3v.13c-.32,.03-.51,.19-.8,.65l-.75,1.18v1.09Z"/>
  </g>
  <g>
    <path class="cls-1" d="M121.68,21.31h.2c.07,.74,.36,1.09,.92,1.09,.43,0,.69-.26,.69-.68,0-.33-.19-.54-.81-.84-.42-.2-.53-.27-.65-.35-.28-.21-.4-.44-.4-.78,0-.4,.22-.75,.58-.92,.17-.08,.36-.11,.63-.11,.16,0,.23,0,.6,.08,.07,.01,.12,.02,.17,.02,.08,0,.15-.01,.3-.07l-.04,1.1h-.2c-.02-.28-.06-.45-.17-.62-.15-.25-.39-.39-.68-.39-.38,0-.64,.26-.64,.64,0,.16,.05,.31,.16,.41,.12,.12,.25,.19,.64,.38,.44,.2,.65,.34,.82,.5,.17,.17,.26,.4,.26,.68,0,.34-.12,.62-.35,.79-.23,.18-.54,.28-.9,.28-.2,0-.32-.01-.66-.08-.06,0-.12-.01-.19-.01-.08,0-.15,0-.32,.04l.04-1.18Z"/>
    <path class="cls-1" d="M124.73,22.34c.43-.01,.47-.06,.47-.51v-2.4c0-.45-.04-.5-.45-.51v-.13h1.54v.13c-.41,.01-.45,.06-.45,.51v2.4c0,.45,.04,.5,.47,.51v.13h-1.58v-.13Z"/>
    <path class="cls-1" d="M127.48,21.53c0,.65,.09,.79,.51,.81v.13h-1.24v-.13c.42-.02,.52-.18,.52-.85v-1.96c0-.48-.08-.59-.48-.62v-.13h1.03l2.01,2.84v-1.85c0-.37-.02-.55-.09-.67-.07-.13-.18-.17-.43-.19v-.13h1.25v.13c-.24,0-.34,.06-.42,.19-.07,.12-.1,.32-.1,.63v2.75h-.36l-2.2-3.14v2.18Z"/>
    <path class="cls-1" d="M133.71,20.02c-.05-.32-.12-.51-.26-.71-.2-.29-.51-.46-.83-.46s-.6,.16-.76,.43c-.19,.32-.29,.75-.29,1.29,0,1.09,.44,1.77,1.17,1.77,.37,0,.72-.18,.96-.51,.08-.11,.14-.22,.22-.4l.14,.08c-.27,.7-.74,1.04-1.48,1.04-.47,0-.91-.17-1.21-.46-.33-.33-.51-.82-.51-1.42,0-1.19,.68-1.96,1.73-1.96,.26,0,.36,.02,.82,.14,.07,.02,.13,.03,.21,.03s.11,0,.27-.06v1.2h-.18Z"/>
    <path class="cls-1" d="M134.37,22.34c.4,0,.44-.06,.44-.51v-2.4c0-.45-.05-.51-.44-.51v-.13h2.71l.09,1.05h-.17c-.1-.68-.36-.91-1.06-.91h-.48v1.55h.35c.53,0,.66-.1,.72-.57h.16v1.29h-.16c-.06-.48-.18-.58-.72-.58h-.35v1.71h.54c.66,0,.94-.26,1.08-1.02l.16,.02-.1,1.15h-2.76v-.13Z"/>
    <path class="cls-1" d="M139.46,22.47c.05-.39,.15-.68,.33-.96,.19-.29,.41-.52,.97-.99,.23-.19,.34-.31,.41-.45,.07-.14,.1-.29,.1-.45,0-.43-.23-.71-.58-.71-.23,0-.38,.11-.46,.33-.04,.12-.04,.17-.05,.45,0,.19-.1,.27-.32,.27-.24,0-.35-.08-.35-.26,0-.27,.15-.52,.41-.69,.22-.15,.49-.22,.82-.22,.74,0,1.19,.34,1.19,.91,0,.25-.07,.45-.22,.62-.1,.12-.29,.26-.54,.4-.65,.36-.8,.46-1.03,.67-.2,.18-.29,.31-.39,.56h1.43c.4,0,.55-.13,.64-.57l.17,.03-.17,1.06h-2.35Z"/>
    <path class="cls-1" d="M142.92,19.27c.21-.31,.56-.48,.96-.48s.74,.18,.95,.48c.24,.35,.36,.83,.36,1.4s-.12,1.05-.36,1.39c-.21,.31-.56,.49-.95,.49s-.75-.18-.96-.49c-.23-.35-.36-.84-.36-1.39s.12-1.04,.36-1.4Zm.45,2.73c.11,.29,.28,.43,.5,.43,.25,0,.42-.17,.53-.51,.09-.27,.13-.67,.13-1.25,0-.64-.05-1.05-.16-1.33-.11-.29-.27-.43-.5-.43-.46,0-.66,.54-.66,1.76,0,.63,.05,1.05,.16,1.33Z"/>
    <path class="cls-1" d="M145.67,22.47c.05-.39,.15-.68,.33-.96,.19-.29,.41-.52,.98-.99,.23-.19,.33-.31,.41-.45,.07-.14,.1-.29,.1-.45,0-.43-.23-.71-.58-.71-.23,0-.38,.11-.46,.33-.04,.12-.04,.17-.05,.45,0,.19-.1,.27-.32,.27-.24,0-.35-.08-.35-.26,0-.27,.15-.52,.41-.69,.22-.15,.49-.22,.82-.22,.74,0,1.19,.34,1.19,.91,0,.25-.07,.45-.22,.62-.1,.12-.29,.26-.54,.4-.65,.36-.8,.46-1.03,.67-.2,.18-.29,.31-.39,.56h1.43c.4,0,.55-.13,.64-.57l.17,.03-.17,1.06h-2.35Z"/>
    <path class="cls-1" d="M149.13,19.27c.21-.31,.56-.48,.96-.48s.74,.18,.95,.48c.24,.35,.36,.83,.36,1.4s-.12,1.05-.36,1.39c-.21,.31-.56,.49-.95,.49s-.75-.18-.96-.49c-.23-.35-.36-.84-.36-1.39s.12-1.04,.36-1.4Zm.45,2.73c.11,.29,.28,.43,.5,.43,.25,0,.42-.17,.53-.51,.09-.27,.13-.67,.13-1.25,0-.64-.05-1.05-.16-1.33-.11-.29-.27-.43-.5-.43-.46,0-.66,.54-.66,1.76,0,.63,.05,1.05,.16,1.33Z"/>
  </g>
  <path class="cls-1" d="M113.14,12.57c0,1.3-1.05,2.35-2.35,2.35s-2.35-1.05-2.35-2.35,1.05-2.35,2.35-2.35,2.35,1.05,2.35,2.35"/>
  <g>
    <path class="cls-1" d="M121.64,14.28c.43-.01,.47-.06,.47-.51v-2.4c0-.45-.04-.5-.45-.51v-.13h1.54v.13c-.41,.01-.45,.06-.45,.51v2.4c0,.45,.04,.5,.47,.51v.13h-1.58v-.13Z"/>
    <path class="cls-1" d="M124.38,13.46c0,.65,.09,.79,.51,.81v.13h-1.24v-.13c.42-.02,.52-.18,.52-.85v-1.96c0-.48-.08-.59-.48-.62v-.13h1.03l2.01,2.84v-1.85c0-.37-.02-.55-.09-.67-.07-.13-.18-.17-.43-.19v-.13h1.25v.13c-.24,0-.34,.06-.42,.19-.07,.12-.1,.32-.1,.63v2.75h-.36l-2.2-3.14v2.18Z"/>
    <path class="cls-1" d="M130.42,13.77c0,.45,.04,.5,.44,.51v.13h-1.53v-.13c.4-.01,.44-.06,.44-.51v-2.4c0-.45-.04-.5-.42-.51v-.13h1.49v.13c-.38,.01-.42,.06-.42,.51v1.34l1.02-1.14c.22-.24,.31-.38,.31-.5,0-.14-.09-.19-.36-.21v-.13h1.36v.13c-.35,.03-.59,.19-1.06,.71l-.49,.53,1.08,1.7c.21,.34,.37,.46,.61,.49v.12h-1.03q-.06-.15-.27-.48l-.82-1.37-.35,.39v.82Z"/>
    <path class="cls-1" d="M133.32,14.28c.43-.01,.47-.06,.47-.51v-2.4c0-.45-.04-.5-.45-.51v-.13h1.54v.13c-.41,.01-.45,.06-.45,.51v2.4c0,.45,.04,.5,.47,.51v.13h-1.58v-.13Z"/>
    <path class="cls-1" d="M137.12,13.77c0,.45,.05,.5,.51,.51v.13h-1.67v-.13c.46,0,.51-.06,.51-.51v-2.92c-.44,0-.67,.09-.84,.29-.14,.16-.22,.41-.3,.85h-.18s.09-1.26,.09-1.26h3.1l.09,1.25h-.18c-.08-.47-.18-.72-.34-.88-.17-.17-.39-.24-.8-.25v2.92Z"/>
    <path class="cls-1" d="M139.36,13.54c-.07,.19-.11,.34-.11,.45,0,.19,.14,.28,.46,.29v.13h-1.27v-.13c.32,0,.5-.2,.72-.78l1.05-2.78,.36-.04,1.07,3.02c.11,.31,.21,.46,.32,.52,.05,.02,.1,.03,.26,.05v.13h-1.61v-.13c.31,0,.42-.07,.42-.24h0c0-.09-.03-.22-.07-.34l-.19-.54h-1.3l-.14,.37Zm.81-2.17l-.6,1.6h1.16l-.56-1.6Z"/>
    <path class="cls-1" d="M143.73,10.72v.13c-.38,.01-.42,.06-.42,.51v1.56c0,.46,.05,.74,.18,.96,.16,.27,.43,.41,.78,.41,.41,0,.73-.2,.88-.55,.08-.19,.12-.5,.12-.88v-1.15c0-.69-.08-.83-.51-.85v-.13h1.21v.13c-.41,.02-.5,.18-.5,.85v1.15c0,.52-.05,.82-.2,1.06-.23,.39-.6,.57-1.16,.57s-.97-.17-1.21-.48c-.18-.24-.24-.47-.24-.97v-1.68c0-.45-.04-.5-.43-.51v-.13h1.49Z"/>
    <path class="cls-1" d="M147.26,13.77c0,.45,.04,.49,.44,.51v.13h-1.53v-.13c.4-.01,.44-.06,.44-.51v-2.41c0-.45-.04-.49-.42-.51v-.13h1.51c.41,0,.76,.05,.96,.15,.31,.15,.45,.38,.45,.75,0,.6-.37,.91-1.15,.97v.04c.26,.03,.43,.11,.61,.26,.16,.14,.25,.29,.48,.84,.19,.45,.28,.54,.51,.56v.12h-.97c-.23-.69-.37-1.05-.51-1.33-.16-.31-.31-.41-.63-.41h-.2v1.1Zm.27-1.25c.59,0,.9-.3,.9-.85s-.28-.81-.87-.81h-.3v1.66h.27Z"/>
    <path class="cls-1" d="M150.84,13.54c-.07,.19-.11,.34-.11,.45,0,.19,.14,.28,.46,.29v.13h-1.27v-.13c.32,0,.5-.2,.72-.78l1.05-2.78,.36-.04,1.07,3.02c.11,.31,.21,.46,.32,.52,.05,.02,.1,.03,.26,.05v.13h-1.61v-.13c.31,0,.42-.07,.42-.24h0c0-.09-.03-.22-.07-.34l-.19-.54h-1.3l-.14,.37Zm.81-2.17l-.6,1.6h1.16l-.56-1.6Z"/>
    <path class="cls-1" d="M155.17,14.43h-.4l-.73-2.94c-.07-.29-.14-.44-.22-.53-.06-.06-.13-.09-.29-.11v-.12h1.52v.12c-.2,.01-.27,.03-.33,.08-.06,.04-.09,.11-.09,.2,0,.09,.02,.22,.07,.41l.51,2.13,.83-2.88h.44l.76,2.86,.53-2.02c.04-.16,.07-.33,.07-.44,0-.15-.07-.26-.22-.31-.06-.02-.14-.03-.26-.04v-.12h1.25v.12c-.35,.05-.47,.21-.64,.84l-.74,2.74h-.39l-.79-2.93-.87,2.93Z"/>
    <path class="cls-1" d="M159.26,13.54c-.07,.19-.11,.34-.11,.45,0,.19,.14,.28,.46,.29v.13h-1.27v-.13c.32,0,.5-.2,.72-.78l1.05-2.78,.36-.04,1.07,3.02c.11,.31,.21,.46,.32,.52,.05,.02,.1,.03,.26,.05v.13h-1.61v-.13c.31,0,.42-.07,.42-.24h0c0-.09-.03-.22-.07-.34l-.19-.54h-1.3l-.14,.37Zm.81-2.17l-.6,1.6h1.16l-.56-1.6Z"/>
  </g>
</svg>